<svg xmlns="http://www.w3.org/2000/svg" width="128" height="128" viewBox="0 0 128 128" role="img" aria-label="Taled app icon">
  <rect x="6" y="6" width="116" height="116" rx="28" fill="#111216" stroke="#2a2b31" stroke-width="2"/>
  <rect x="32" y="32" width="4" height="4" fill="#000000"/>
  <rect x="36" y="32" width="4" height="4" fill="#000000"/>
  <rect x="40" y="32" width="4" height="4" fill="#000000"/>
  <rect x="44" y="32" width="4" height="4" fill="#000000"/>
  <rect x="48" y="32" width="4" height="4" fill="#000000"/>
  <rect x="52" y="32" width="4" height="4" fill="#000000"/>
  <rect x="72" y="32" width="4" height="4" fill="#000000"/>
  <rect x="76" y="32" width="4" height="4" fill="#000000"/>
  <rect x="80" y="32" width="4" height="4" fill="#000000"/>
  <rect x="84" y="32" width="4" height="4" fill="#000000"/>
  <rect x="88" y="32" width="4" height="4" fill="#000000"/>
  <rect x="92" y="32" width="4" height="4" fill="#000000"/>
  <rect x="32" y="36" width="4" height="4" fill="#000000"/>
  <rect x="36" y="36" width="4" height="4" fill="#ff0000"/>
  <rect x="40" y="36" width="4" height="4" fill="#ff0000"/>
  <rect x="44" y="36" width="4" height="4" fill="#ff0000"/>
  <rect x="48" y="36" width="4" height="4" fill="#ff0000"/>
  <rect x="52" y="36" width="4" height="4" fill="#000000"/>
  <rect x="72" y="36" width="4" height="4" fill="#000000"/>
  <rect x="76" y="36" width="4" height="4" fill="#ff0000"/>
  <rect x="80" y="36" width="4" height="4" fill="#ff0000"/>
  <rect x="84" y="36" width="4" height="4" fill="#ff0000"/>
  <rect x="88" y="36" width="4" height="4" fill="#ff0000"/>
  <rect x="92" y="36" width="4" height="4" fill="#000000"/>
  <rect x="32" y="40" width="4" height="4" fill="#000000"/>
  <rect x="36" y="40" width="4" height="4" fill="#ff0000"/>
  <rect x="40" y="40" width="4" height="4" fill="#ff0000"/>
  <rect x="44" y="40" width="4" height="4" fill="#ff0000"/>
  <rect x="48" y="40" width="4" height="4" fill="#ff0000"/>
  <rect x="52" y="40" width="4" height="4" fill="#000000"/>
  <rect x="72" y="40" width="4" height="4" fill="#000000"/>
  <rect x="76" y="40" width="4" height="4" fill="#ff0000"/>
  <rect x="80" y="40" width="4" height="4" fill="#ff0000"/>
  <rect x="84" y="40" width="4" height="4" fill="#ff0000"/>
  <rect x="88" y="40" width="4" height="4" fill="#ff0000"/>
  <rect x="92" y="40" width="4" height="4" fill="#000000"/>
  <rect x="32" y="44" width="4" height="4" fill="#000000"/>
  <rect x="36" y="44" width="4" height="4" fill="#ff0000"/>
  <rect x="40" y="44" width="4" height="4" fill="#ff0000"/>
  <rect x="44" y="44" width="4" height="4" fill="#ff0000"/>
  <rect x="48" y="44" width="4" height="4" fill="#ff0000"/>
  <rect x="52" y="44" width="4" height="4" fill="#000000"/>
  <rect x="72" y="44" width="4" height="4" fill="#000000"/>
  <rect x="76" y="44" width="4" height="4" fill="#ff0000"/>
  <rect x="80" y="44" width="4" height="4" fill="#ff0000"/>
  <rect x="84" y="44" width="4" height="4" fill="#ff0000"/>
  <rect x="88" y="44" width="4" height="4" fill="#ff0000"/>
  <rect x="92" y="44" width="4" height="4" fill="#000000"/>
  <rect x="32" y="48" width="4" height="4" fill="#000000"/>
  <rect x="36" y="48" width="4" height="4" fill="#ff0000"/>
  <rect x="40" y="48" width="4" height="4" fill="#ff0000"/>
  <rect x="44" y="48" width="4" height="4" fill="#ff0000"/>
  <rect x="48" y="48" width="4" height="4" fill="#ff0000"/>
  <rect x="52" y="48" width="4" height="4" fill="#000000"/>
  <rect x="72" y="48" width="4" height="4" fill="#000000"/>
  <rect x="76" y="48" width="4" height="4" fill="#ff0000"/>
  <rect x="80" y="48" width="4" height="4" fill="#ff0000"/>
  <rect x="84" y="48" width="4" height="4" fill="#ff0000"/>
  <rect x="88" y="48" width="4" height="4" fill="#ff0000"/>
  <rect x="92" y="48" width="4" height="4" fill="#000000"/>
  <rect x="32" y="52" width="4" height="4" fill="#000000"/>
  <rect x="36" y="52" width="4" height="4" fill="#000000"/>
  <rect x="40" y="52" width="4" height="4" fill="#000000"/>
  <rect x="44" y="52" width="4" height="4" fill="#000000"/>
  <rect x="48" y="52" width="4" height="4" fill="#000000"/>
  <rect x="52" y="52" width="4" height="4" fill="#000000"/>
  <rect x="56" y="52" width="4" height="4" fill="#000000"/>
  <rect x="60" y="52" width="4" height="4" fill="#000000"/>
  <rect x="64" y="52" width="4" height="4" fill="#000000"/>
  <rect x="68" y="52" width="4" height="4" fill="#000000"/>
  <rect x="72" y="52" width="4" height="4" fill="#000000"/>
  <rect x="76" y="52" width="4" height="4" fill="#000000"/>
  <rect x="80" y="52" width="4" height="4" fill="#000000"/>
  <rect x="84" y="52" width="4" height="4" fill="#000000"/>
  <rect x="88" y="52" width="4" height="4" fill="#000000"/>
  <rect x="92" y="52" width="4" height="4" fill="#000000"/>
  <rect x="32" y="56" width="4" height="4" fill="#000000"/>
  <rect x="36" y="56" width="4" height="4" fill="#ff0000"/>
  <rect x="40" y="56" width="4" height="4" fill="#ff0000"/>
  <rect x="44" y="56" width="4" height="4" fill="#ff0000"/>
  <rect x="48" y="56" width="4" height="4" fill="#ff0000"/>
  <rect x="52" y="56" width="4" height="4" fill="#000000"/>
  <rect x="56" y="56" width="4" height="4" fill="#ff0000"/>
  <rect x="60" y="56" width="4" height="4" fill="#ff0000"/>
  <rect x="64" y="56" width="4" height="4" fill="#ff0000"/>
  <rect x="68" y="56" width="4" height="4" fill="#ff0000"/>
  <rect x="72" y="56" width="4" height="4" fill="#000000"/>
  <rect x="76" y="56" width="4" height="4" fill="#ff0000"/>
  <rect x="80" y="56" width="4" height="4" fill="#ff0000"/>
  <rect x="84" y="56" width="4" height="4" fill="#ff0000"/>
  <rect x="88" y="56" width="4" height="4" fill="#ff0000"/>
  <rect x="92" y="56" width="4" height="4" fill="#000000"/>
  <rect x="32" y="60" width="4" height="4" fill="#000000"/>
  <rect x="36" y="60" width="4" height="4" fill="#ff0000"/>
  <rect x="40" y="60" width="4" height="4" fill="#ff0000"/>
  <rect x="44" y="60" width="4" height="4" fill="#ff0000"/>
  <rect x="48" y="60" width="4" height="4" fill="#ff0000"/>
  <rect x="52" y="60" width="4" height="4" fill="#000000"/>
  <rect x="56" y="60" width="4" height="4" fill="#ff0000"/>
  <rect x="60" y="60" width="4" height="4" fill="#ff0000"/>
  <rect x="64" y="60" width="4" height="4" fill="#ff0000"/>
  <rect x="68" y="60" width="4" height="4" fill="#ff0000"/>
  <rect x="72" y="60" width="4" height="4" fill="#000000"/>
  <rect x="76" y="60" width="4" height="4" fill="#ff0000"/>
  <rect x="80" y="60" width="4" height="4" fill="#ff0000"/>
  <rect x="84" y="60" width="4" height="4" fill="#ff0000"/>
  <rect x="88" y="60" width="4" height="4" fill="#ff0000"/>
  <rect x="92" y="60" width="4" height="4" fill="#000000"/>
  <rect x="32" y="64" width="4" height="4" fill="#000000"/>
  <rect x="36" y="64" width="4" height="4" fill="#ff0000"/>
  <rect x="40" y="64" width="4" height="4" fill="#ff0000"/>
  <rect x="44" y="64" width="4" height="4" fill="#ff0000"/>
  <rect x="48" y="64" width="4" height="4" fill="#ff0000"/>
  <rect x="52" y="64" width="4" height="4" fill="#000000"/>
  <rect x="56" y="64" width="4" height="4" fill="#ff0000"/>
  <rect x="60" y="64" width="4" height="4" fill="#ff0000"/>
  <rect x="64" y="64" width="4" height="4" fill="#ff0000"/>
  <rect x="68" y="64" width="4" height="4" fill="#ff0000"/>
  <rect x="72" y="64" width="4" height="4" fill="#000000"/>
  <rect x="76" y="64" width="4" height="4" fill="#ff0000"/>
  <rect x="80" y="64" width="4" height="4" fill="#ff0000"/>
  <rect x="84" y="64" width="4" height="4" fill="#ff0000"/>
  <rect x="88" y="64" width="4" height="4" fill="#ff0000"/>
  <rect x="92" y="64" width="4" height="4" fill="#000000"/>
  <rect x="32" y="68" width="4" height="4" fill="#000000"/>
  <rect x="36" y="68" width="4" height="4" fill="#ff0000"/>
  <rect x="40" y="68" width="4" height="4" fill="#ff0000"/>
  <rect x="44" y="68" width="4" height="4" fill="#ff0000"/>
  <rect x="48" y="68" width="4" height="4" fill="#ff0000"/>
  <rect x="52" y="68" width="4" height="4" fill="#000000"/>
  <rect x="56" y="68" width="4" height="4" fill="#ff0000"/>
  <rect x="60" y="68" width="4" height="4" fill="#ff0000"/>
  <rect x="64" y="68" width="4" height="4" fill="#ff0000"/>
  <rect x="68" y="68" width="4" height="4" fill="#ff0000"/>
  <rect x="72" y="68" width="4" height="4" fill="#000000"/>
  <rect x="76" y="68" width="4" height="4" fill="#ff0000"/>
  <rect x="80" y="68" width="4" height="4" fill="#ff0000"/>
  <rect x="84" y="68" width="4" height="4" fill="#ff0000"/>
  <rect x="88" y="68" width="4" height="4" fill="#ff0000"/>
  <rect x="92" y="68" width="4" height="4" fill="#000000"/>
  <rect x="32" y="72" width="4" height="4" fill="#000000"/>
  <rect x="36" y="72" width="4" height="4" fill="#000000"/>
  <rect x="40" y="72" width="4" height="4" fill="#000000"/>
  <rect x="44" y="72" width="4" height="4" fill="#000000"/>
  <rect x="48" y="72" width="4" height="4" fill="#000000"/>
  <rect x="52" y="72" width="4" height="4" fill="#000000"/>
  <rect x="56" y="72" width="4" height="4" fill="#000000"/>
  <rect x="60" y="72" width="4" height="4" fill="#000000"/>
  <rect x="64" y="72" width="4" height="4" fill="#000000"/>
  <rect x="68" y="72" width="4" height="4" fill="#000000"/>
  <rect x="72" y="72" width="4" height="4" fill="#000000"/>
  <rect x="76" y="72" width="4" height="4" fill="#000000"/>
  <rect x="80" y="72" width="4" height="4" fill="#000000"/>
  <rect x="84" y="72" width="4" height="4" fill="#000000"/>
  <rect x="88" y="72" width="4" height="4" fill="#000000"/>
  <rect x="92" y="72" width="4" height="4" fill="#000000"/>
  <rect x="52" y="76" width="4" height="4" fill="#000000"/>
  <rect x="56" y="76" width="4" height="4" fill="#ff0000"/>
  <rect x="60" y="76" width="4" height="4" fill="#ff0000"/>
  <rect x="64" y="76" width="4" height="4" fill="#ff0000"/>
  <rect x="68" y="76" width="4" height="4" fill="#ff0000"/>
  <rect x="72" y="76" width="4" height="4" fill="#000000"/>
  <rect x="52" y="80" width="4" height="4" fill="#000000"/>
  <rect x="56" y="80" width="4" height="4" fill="#ff0000"/>
  <rect x="60" y="80" width="4" height="4" fill="#ff0000"/>
  <rect x="64" y="80" width="4" height="4" fill="#ff0000"/>
  <rect x="68" y="80" width="4" height="4" fill="#ff0000"/>
  <rect x="72" y="80" width="4" height="4" fill="#000000"/>
  <rect x="52" y="84" width="4" height="4" fill="#000000"/>
  <rect x="56" y="84" width="4" height="4" fill="#ff0000"/>
  <rect x="60" y="84" width="4" height="4" fill="#ff0000"/>
  <rect x="64" y="84" width="4" height="4" fill="#ff0000"/>
  <rect x="68" y="84" width="4" height="4" fill="#ff0000"/>
  <rect x="72" y="84" width="4" height="4" fill="#000000"/>
  <rect x="52" y="88" width="4" height="4" fill="#000000"/>
  <rect x="56" y="88" width="4" height="4" fill="#ff0000"/>
  <rect x="60" y="88" width="4" height="4" fill="#ff0000"/>
  <rect x="64" y="88" width="4" height="4" fill="#ff0000"/>
  <rect x="68" y="88" width="4" height="4" fill="#ff0000"/>
  <rect x="72" y="88" width="4" height="4" fill="#000000"/>
  <rect x="52" y="92" width="4" height="4" fill="#000000"/>
  <rect x="56" y="92" width="4" height="4" fill="#000000"/>
  <rect x="60" y="92" width="4" height="4" fill="#000000"/>
  <rect x="64" y="92" width="4" height="4" fill="#000000"/>
  <rect x="68" y="92" width="4" height="4" fill="#000000"/>
  <rect x="72" y="92" width="4" height="4" fill="#000000"/>
</svg>
